<mxfile host="65bd71144e">
    <diagram id="3hWNbCpws5QloM3HWcna" name="페이지-1">
        <mxGraphModel dx="2002" dy="670" grid="0" gridSize="10" guides="1" tooltips="1" connect="1" arrows="1" fold="1" page="0" pageScale="1" pageWidth="827" pageHeight="1169" background="#ffffff" math="0" shadow="0">
            <root>
                <mxCell id="0"/>
                <mxCell id="1" parent="0"/>
                <mxCell id="25" style="edgeStyle=none;html=1;exitX=1;exitY=0.5;exitDx=0;exitDy=0;strokeColor=#000000;fontColor=#000000;" parent="1" source="7" edge="1">
                    <mxGeometry relative="1" as="geometry">
                        <mxPoint x="384" y="486" as="targetPoint"/>
                    </mxGeometry>
                </mxCell>
                <mxCell id="36" style="edgeStyle=none;html=1;exitX=0.5;exitY=0;exitDx=0;exitDy=0;entryX=0;entryY=0.5;entryDx=0;entryDy=0;strokeColor=#000000;fontColor=#000000;" parent="1" source="7" target="34" edge="1">
                    <mxGeometry relative="1" as="geometry">
                        <Array as="points">
                            <mxPoint x="130" y="365"/>
                        </Array>
                    </mxGeometry>
                </mxCell>
                <mxCell id="7" value="Listener" style="swimlane;fontStyle=1;childLayout=stackLayout;horizontal=1;startSize=26;fillColor=none;horizontalStack=0;resizeParent=1;resizeParentMax=0;resizeLast=0;collapsible=1;marginBottom=0;fontSize=18;strokeColor=#000000;fontColor=#000000;" parent="1" vertex="1">
                    <mxGeometry x="40" y="460" width="180" height="52" as="geometry"/>
                </mxCell>
                <mxCell id="8" value="checkEvent()" style="text;strokeColor=#000000;fillColor=none;align=left;verticalAlign=top;spacingLeft=4;spacingRight=4;overflow=hidden;rotatable=0;points=[[0,0.5],[1,0.5]];portConstraint=eastwest;fontSize=14;fontStyle=1;fontColor=#000000;" parent="7" vertex="1">
                    <mxGeometry y="26" width="180" height="26" as="geometry"/>
                </mxCell>
                <mxCell id="15" value="mfrc522" style="swimlane;fontStyle=1;childLayout=stackLayout;horizontal=1;startSize=26;fillColor=none;horizontalStack=0;resizeParent=1;resizeParentMax=0;resizeLast=0;collapsible=1;marginBottom=0;fontSize=18;strokeColor=#000000;fontColor=#000000;" parent="1" vertex="1">
                    <mxGeometry x="23" y="778" width="180" height="78" as="geometry"/>
                </mxCell>
                <mxCell id="16" value="request()" style="text;strokeColor=#000000;fillColor=none;align=left;verticalAlign=top;spacingLeft=4;spacingRight=4;overflow=hidden;rotatable=0;points=[[0,0.5],[1,0.5]];portConstraint=eastwest;fontSize=14;fontStyle=1;fontColor=#000000;" parent="15" vertex="1">
                    <mxGeometry y="26" width="180" height="26" as="geometry"/>
                </mxCell>
                <mxCell id="17" value="get_card_serial()" style="text;strokeColor=#000000;fillColor=none;align=left;verticalAlign=top;spacingLeft=4;spacingRight=4;overflow=hidden;rotatable=0;points=[[0,0.5],[1,0.5]];portConstraint=eastwest;fontSize=14;fontStyle=1;fontColor=#000000;" parent="15" vertex="1">
                    <mxGeometry y="52" width="180" height="26" as="geometry"/>
                </mxCell>
                <mxCell id="37" style="edgeStyle=none;html=1;exitX=0.15;exitY=-0.043;exitDx=0;exitDy=0;exitPerimeter=0;strokeColor=#000000;fontColor=#000000;" parent="1" source="22" edge="1">
                    <mxGeometry relative="1" as="geometry">
                        <mxPoint x="417" y="380" as="targetPoint"/>
                    </mxGeometry>
                </mxCell>
                <mxCell id="62" style="edgeStyle=none;html=1;exitX=1;exitY=0.5;exitDx=0;exitDy=0;fontSize=17;startArrow=none;startFill=0;endArrow=classic;endFill=1;strokeColor=#000000;fontColor=#000000;" parent="1" source="23" edge="1">
                    <mxGeometry relative="1" as="geometry">
                        <mxPoint x="639" y="491" as="targetPoint"/>
                    </mxGeometry>
                </mxCell>
                <mxCell id="22" value="Controller" style="swimlane;fontStyle=1;childLayout=stackLayout;horizontal=1;startSize=26;fillColor=none;horizontalStack=0;resizeParent=1;resizeParentMax=0;resizeLast=0;collapsible=1;marginBottom=0;fontSize=18;strokeColor=#000000;fontColor=#000000;" parent="1" vertex="1">
                    <mxGeometry x="390" y="451" width="180" height="54" as="geometry"/>
                </mxCell>
                <mxCell id="23" value="updateEvent()" style="text;strokeColor=#000000;fillColor=none;align=left;verticalAlign=top;spacingLeft=4;spacingRight=4;overflow=hidden;rotatable=0;points=[[0,0.5],[1,0.5]];portConstraint=eastwest;fontSize=14;fontStyle=1;fontColor=#000000;" parent="22" vertex="1">
                    <mxGeometry y="26" width="180" height="28" as="geometry"/>
                </mxCell>
                <mxCell id="32" value="DeviceData" style="swimlane;fontStyle=1;childLayout=stackLayout;horizontal=1;startSize=26;fillColor=none;horizontalStack=0;resizeParent=1;resizeParentMax=0;resizeLast=0;collapsible=1;marginBottom=0;fontSize=18;strokeColor=#000000;fontColor=#000000;" parent="1" vertex="1">
                    <mxGeometry x="280" y="300" width="160" height="78" as="geometry"/>
                </mxCell>
                <mxCell id="33" value="devName : std::string" style="text;strokeColor=#000000;fillColor=none;align=left;verticalAlign=top;spacingLeft=4;spacingRight=4;overflow=hidden;rotatable=0;points=[[0,0.5],[1,0.5]];portConstraint=eastwest;fontSize=14;fontStyle=1;fontColor=#000000;" parent="32" vertex="1">
                    <mxGeometry y="26" width="160" height="26" as="geometry"/>
                </mxCell>
                <mxCell id="34" value="devData : std::vector" style="text;strokeColor=#000000;fillColor=none;align=left;verticalAlign=top;spacingLeft=4;spacingRight=4;overflow=hidden;rotatable=0;points=[[0,0.5],[1,0.5]];portConstraint=eastwest;fontSize=14;fontStyle=1;fontColor=#000000;" parent="32" vertex="1">
                    <mxGeometry y="52" width="160" height="26" as="geometry"/>
                </mxCell>
                <mxCell id="42" style="edgeStyle=none;html=1;exitX=0.612;exitY=-0.041;exitDx=0;exitDy=0;endArrow=none;endFill=0;startArrow=classic;startFill=1;entryX=0.55;entryY=0.984;entryDx=0;entryDy=0;entryPerimeter=0;exitPerimeter=0;strokeColor=#000000;fontColor=#000000;" parent="1" source="38" target="8" edge="1">
                    <mxGeometry relative="1" as="geometry">
                        <mxPoint x="324" y="550" as="targetPoint"/>
                    </mxGeometry>
                </mxCell>
                <mxCell id="38" value="CardReader" style="swimlane;fontStyle=1;childLayout=stackLayout;horizontal=1;startSize=26;fillColor=none;horizontalStack=0;resizeParent=1;resizeParentMax=0;resizeLast=0;collapsible=1;marginBottom=0;fontSize=18;strokeColor=#000000;fontColor=#000000;" parent="1" vertex="1">
                    <mxGeometry y="650" width="226" height="78" as="geometry"/>
                </mxCell>
                <mxCell id="39" value="isCard()" style="text;strokeColor=#000000;fillColor=none;align=left;verticalAlign=top;spacingLeft=4;spacingRight=4;overflow=hidden;rotatable=0;points=[[0,0.5],[1,0.5]];portConstraint=eastwest;fontSize=14;fontStyle=1;fontColor=#000000;" parent="38" vertex="1">
                    <mxGeometry y="26" width="226" height="26" as="geometry"/>
                </mxCell>
                <mxCell id="40" value="getCardNumber() : DeviceData" style="text;strokeColor=#000000;fillColor=none;align=left;verticalAlign=top;spacingLeft=4;spacingRight=4;overflow=hidden;rotatable=0;points=[[0,0.5],[1,0.5]];portConstraint=eastwest;fontSize=14;fontStyle=1;fontColor=#000000;" parent="38" vertex="1">
                    <mxGeometry y="52" width="226" height="26" as="geometry"/>
                </mxCell>
                <mxCell id="45" value="DataBase&lt;br&gt;memberList.bin" style="shape=cylinder3;whiteSpace=wrap;html=1;boundedLbl=1;backgroundOutline=1;size=15;fontSize=17;fontStyle=1;strokeColor=#000000;fontColor=#000000;fillColor=#FFFFFF;" parent="1" vertex="1">
                    <mxGeometry x="1030" y="750" width="170" height="120" as="geometry"/>
                </mxCell>
                <mxCell id="48" value="MemberInfo" style="swimlane;fontStyle=1;childLayout=stackLayout;horizontal=1;startSize=26;fillColor=none;horizontalStack=0;resizeParent=1;resizeParentMax=0;resizeLast=0;collapsible=1;marginBottom=0;fontSize=18;strokeColor=#000000;fontColor=#000000;" parent="1" vertex="1">
                    <mxGeometry x="690" y="210" width="160" height="156" as="geometry"/>
                </mxCell>
                <mxCell id="49" value="id : int" style="text;strokeColor=#000000;fillColor=none;align=left;verticalAlign=top;spacingLeft=4;spacingRight=4;overflow=hidden;rotatable=0;points=[[0,0.5],[1,0.5]];portConstraint=eastwest;fontSize=14;fontStyle=1;fontColor=#000000;" parent="48" vertex="1">
                    <mxGeometry y="26" width="160" height="26" as="geometry"/>
                </mxCell>
                <mxCell id="50" value="name[10] : char" style="text;strokeColor=#000000;fillColor=none;align=left;verticalAlign=top;spacingLeft=4;spacingRight=4;overflow=hidden;rotatable=0;points=[[0,0.5],[1,0.5]];portConstraint=eastwest;fontSize=14;fontStyle=1;fontColor=#000000;" parent="48" vertex="1">
                    <mxGeometry y="52" width="160" height="26" as="geometry"/>
                </mxCell>
                <mxCell id="51" value="address[40] : char" style="text;strokeColor=#000000;fillColor=none;align=left;verticalAlign=top;spacingLeft=4;spacingRight=4;overflow=hidden;rotatable=0;points=[[0,0.5],[1,0.5]];portConstraint=eastwest;fontSize=14;fontStyle=1;fontColor=#000000;" parent="48" vertex="1">
                    <mxGeometry y="78" width="160" height="26" as="geometry"/>
                </mxCell>
                <mxCell id="52" value="phoneNum[15] : char" style="text;strokeColor=#000000;fillColor=none;align=left;verticalAlign=top;spacingLeft=4;spacingRight=4;overflow=hidden;rotatable=0;points=[[0,0.5],[1,0.5]];portConstraint=eastwest;fontSize=14;fontStyle=1;fontColor=#000000;" parent="48" vertex="1">
                    <mxGeometry y="104" width="160" height="26" as="geometry"/>
                </mxCell>
                <mxCell id="53" value="cardNum[5] : int" style="text;strokeColor=#000000;fillColor=none;align=left;verticalAlign=top;spacingLeft=4;spacingRight=4;overflow=hidden;rotatable=0;points=[[0,0.5],[1,0.5]];portConstraint=eastwest;fontSize=14;fontStyle=1;fontColor=#000000;" parent="48" vertex="1">
                    <mxGeometry y="130" width="160" height="26" as="geometry"/>
                </mxCell>
                <mxCell id="59" style="edgeStyle=none;html=1;exitX=0.5;exitY=0;exitDx=0;exitDy=0;fontSize=17;startArrow=none;startFill=0;endArrow=classic;endFill=1;entryX=0.5;entryY=0.977;entryDx=0;entryDy=0;entryPerimeter=0;strokeColor=#000000;fontColor=#000000;" parent="1" source="55" target="53" edge="1">
                    <mxGeometry relative="1" as="geometry">
                        <mxPoint x="770" y="330" as="targetPoint"/>
                    </mxGeometry>
                </mxCell>
                <mxCell id="63" style="edgeStyle=none;html=1;exitX=1;exitY=0.5;exitDx=0;exitDy=0;entryX=0;entryY=0.5;entryDx=0;entryDy=0;fontSize=17;startArrow=none;startFill=0;endArrow=classic;endFill=1;strokeColor=#000000;fontColor=#000000;" parent="1" source="55" target="57" edge="1">
                    <mxGeometry relative="1" as="geometry"/>
                </mxCell>
                <mxCell id="85" style="edgeStyle=none;html=1;entryX=0.5;entryY=0;entryDx=0;entryDy=0;strokeColor=#000000;fontColor=#000000;" parent="1" target="82" edge="1">
                    <mxGeometry relative="1" as="geometry">
                        <mxPoint x="765" y="598" as="sourcePoint"/>
                        <Array as="points">
                            <mxPoint x="839" y="598"/>
                        </Array>
                    </mxGeometry>
                </mxCell>
                <mxCell id="55" value="MembersManage&#10;Service" style="swimlane;fontStyle=1;childLayout=stackLayout;horizontal=1;startSize=50;fillColor=none;horizontalStack=0;resizeParent=1;resizeParentMax=0;resizeLast=0;collapsible=1;marginBottom=0;fontSize=18;strokeColor=#000000;fontColor=#000000;" parent="1" vertex="1">
                    <mxGeometry x="650" y="420" width="240" height="110" as="geometry"/>
                </mxCell>
                <mxCell id="56" value="updateStateEvent(std::string)" style="text;strokeColor=#000000;fillColor=none;align=left;verticalAlign=top;spacingLeft=4;spacingRight=4;overflow=hidden;rotatable=0;points=[[0,0.5],[1,0.5]];portConstraint=eastwest;fontSize=14;fontStyle=1;fontColor=#000000;" parent="55" vertex="1">
                    <mxGeometry y="50" width="240" height="30" as="geometry"/>
                </mxCell>
                <mxCell id="75" value="updateSearchEvent(std::string)" style="text;strokeColor=#000000;fillColor=none;align=left;verticalAlign=top;spacingLeft=4;spacingRight=4;overflow=hidden;rotatable=0;points=[[0,0.5],[1,0.5]];portConstraint=eastwest;fontSize=14;fontStyle=1;fontColor=#000000;" parent="55" vertex="1">
                    <mxGeometry y="80" width="240" height="30" as="geometry"/>
                </mxCell>
                <mxCell id="60" style="edgeStyle=none;html=1;exitX=0.5;exitY=0;exitDx=0;exitDy=0;entryX=1;entryY=0.5;entryDx=0;entryDy=0;fontSize=17;startArrow=none;startFill=0;endArrow=classic;endFill=1;strokeColor=#000000;fontColor=#000000;" parent="1" source="57" target="50" edge="1">
                    <mxGeometry relative="1" as="geometry">
                        <Array as="points">
                            <mxPoint x="1116" y="275"/>
                        </Array>
                    </mxGeometry>
                </mxCell>
                <mxCell id="57" value="MembersEntity" style="swimlane;fontStyle=1;childLayout=stackLayout;horizontal=1;startSize=50;fillColor=none;horizontalStack=0;resizeParent=1;resizeParentMax=0;resizeLast=0;collapsible=1;marginBottom=0;fontSize=18;strokeColor=#000000;fontColor=#000000;" parent="1" vertex="1">
                    <mxGeometry x="991" y="330" width="250" height="290" as="geometry"/>
                </mxCell>
                <mxCell id="69" value="loadMemberInfo()" style="text;strokeColor=#000000;fillColor=none;align=left;verticalAlign=top;spacingLeft=4;spacingRight=4;overflow=hidden;rotatable=0;points=[[0,0.5],[1,0.5]];portConstraint=eastwest;fontSize=14;fontStyle=1;fontColor=#000000;" parent="57" vertex="1">
                    <mxGeometry y="50" width="250" height="30" as="geometry"/>
                </mxCell>
                <mxCell id="58" value="addMemberInfo(MemberInfo)" style="text;strokeColor=#000000;fillColor=none;align=left;verticalAlign=top;spacingLeft=4;spacingRight=4;overflow=hidden;rotatable=0;points=[[0,0.5],[1,0.5]];portConstraint=eastwest;fontSize=14;fontStyle=1;fontColor=#000000;" parent="57" vertex="1">
                    <mxGeometry y="80" width="250" height="30" as="geometry"/>
                </mxCell>
                <mxCell id="74" value="delMemberInfo(int *carNum)" style="text;strokeColor=#000000;fillColor=none;align=left;verticalAlign=top;spacingLeft=4;spacingRight=4;overflow=hidden;rotatable=0;points=[[0,0.5],[1,0.5]];portConstraint=eastwest;fontSize=14;fontStyle=1;fontColor=#000000;" parent="57" vertex="1">
                    <mxGeometry y="110" width="250" height="30" as="geometry"/>
                </mxCell>
                <mxCell id="67" value="printMemberInfo(int id)" style="text;strokeColor=#000000;fillColor=none;align=left;verticalAlign=top;spacingLeft=4;spacingRight=4;overflow=hidden;rotatable=0;points=[[0,0.5],[1,0.5]];portConstraint=eastwest;fontSize=14;fontStyle=1;fontColor=#000000;" parent="57" vertex="1">
                    <mxGeometry y="140" width="250" height="30" as="geometry"/>
                </mxCell>
                <mxCell id="68" value="printMemberInfo(std::string name)" style="text;strokeColor=#000000;fillColor=none;align=left;verticalAlign=top;spacingLeft=4;spacingRight=4;overflow=hidden;rotatable=0;points=[[0,0.5],[1,0.5]];portConstraint=eastwest;fontSize=14;fontStyle=1;fontColor=#000000;" parent="57" vertex="1">
                    <mxGeometry y="170" width="250" height="30" as="geometry"/>
                </mxCell>
                <mxCell id="72" value="printMemberInfo(int *cardNum)" style="text;strokeColor=#000000;fillColor=none;align=left;verticalAlign=top;spacingLeft=4;spacingRight=4;overflow=hidden;rotatable=0;points=[[0,0.5],[1,0.5]];portConstraint=eastwest;fontSize=14;fontStyle=1;fontColor=#000000;" parent="57" vertex="1">
                    <mxGeometry y="200" width="250" height="30" as="geometry"/>
                </mxCell>
                <mxCell id="71" value="findMemberInfo(int *cardNum)" style="text;strokeColor=#000000;fillColor=none;align=left;verticalAlign=top;spacingLeft=4;spacingRight=4;overflow=hidden;rotatable=0;points=[[0,0.5],[1,0.5]];portConstraint=eastwest;fontSize=14;fontStyle=1;fontColor=#000000;" parent="57" vertex="1">
                    <mxGeometry y="230" width="250" height="30" as="geometry"/>
                </mxCell>
                <mxCell id="70" value="findMemberInfo(std::string name)" style="text;strokeColor=#000000;fillColor=none;align=left;verticalAlign=top;spacingLeft=4;spacingRight=4;overflow=hidden;rotatable=0;points=[[0,0.5],[1,0.5]];portConstraint=eastwest;fontSize=14;fontStyle=1;fontColor=#000000;" parent="57" vertex="1">
                    <mxGeometry y="260" width="250" height="30" as="geometry"/>
                </mxCell>
                <mxCell id="61" style="edgeStyle=none;html=1;fontSize=17;startArrow=none;startFill=0;endArrow=classic;endFill=1;strokeColor=#000000;fontColor=#000000;" parent="1" target="45" edge="1">
                    <mxGeometry relative="1" as="geometry">
                        <mxPoint x="1115" y="620" as="sourcePoint"/>
                    </mxGeometry>
                </mxCell>
                <mxCell id="64" value="Button" style="swimlane;fontStyle=1;childLayout=stackLayout;horizontal=1;startSize=26;fillColor=none;horizontalStack=0;resizeParent=1;resizeParentMax=0;resizeLast=0;collapsible=1;marginBottom=0;fontSize=18;strokeColor=#000000;fontColor=#000000;" parent="1" vertex="1">
                    <mxGeometry x="280" y="810" width="180" height="52" as="geometry"/>
                </mxCell>
                <mxCell id="65" value="getState()" style="text;strokeColor=#000000;fillColor=none;align=left;verticalAlign=top;spacingLeft=4;spacingRight=4;overflow=hidden;rotatable=0;points=[[0,0.5],[1,0.5]];portConstraint=eastwest;fontSize=14;fontStyle=1;fontColor=#000000;" parent="64" vertex="1">
                    <mxGeometry y="26" width="180" height="26" as="geometry"/>
                </mxCell>
                <mxCell id="81" style="edgeStyle=none;html=1;exitX=0.441;exitY=0.008;exitDx=0;exitDy=0;entryX=0.503;entryY=0.996;entryDx=0;entryDy=0;entryPerimeter=0;exitPerimeter=0;strokeColor=#000000;fontColor=#000000;" parent="1" source="77" target="34" edge="1">
                    <mxGeometry relative="1" as="geometry"/>
                </mxCell>
                <mxCell id="77" value="ManageButton" style="swimlane;fontStyle=1;childLayout=stackLayout;horizontal=1;startSize=26;fillColor=none;horizontalStack=0;resizeParent=1;resizeParentMax=0;resizeLast=0;collapsible=1;marginBottom=0;fontSize=18;strokeColor=#000000;fontColor=#000000;" parent="1" vertex="1">
                    <mxGeometry x="260" y="700" width="226" height="78" as="geometry"/>
                </mxCell>
                <mxCell id="78" value="checkbutton() : bool" style="text;strokeColor=#000000;fillColor=none;align=left;verticalAlign=top;spacingLeft=4;spacingRight=4;overflow=hidden;rotatable=0;points=[[0,0.5],[1,0.5]];portConstraint=eastwest;fontSize=14;fontStyle=1;fontColor=#000000;" parent="77" vertex="1">
                    <mxGeometry y="26" width="226" height="26" as="geometry"/>
                </mxCell>
                <mxCell id="79" value="getButtonData() : DeviceData" style="text;strokeColor=#000000;fillColor=none;align=left;verticalAlign=top;spacingLeft=4;spacingRight=4;overflow=hidden;rotatable=0;points=[[0,0.5],[1,0.5]];portConstraint=eastwest;fontSize=14;fontStyle=1;fontColor=#000000;" parent="77" vertex="1">
                    <mxGeometry y="52" width="226" height="26" as="geometry"/>
                </mxCell>
                <mxCell id="88" style="edgeStyle=none;html=1;entryX=0.5;entryY=0;entryDx=0;entryDy=0;strokeColor=#000000;fontColor=#000000;" parent="1" target="86" edge="1">
                    <mxGeometry relative="1" as="geometry">
                        <mxPoint x="839" y="680" as="sourcePoint"/>
                    </mxGeometry>
                </mxCell>
                <mxCell id="82" value="ComDev" style="swimlane;fontStyle=1;childLayout=stackLayout;horizontal=1;startSize=30;fillColor=none;horizontalStack=0;resizeParent=1;resizeParentMax=0;resizeLast=0;collapsible=1;marginBottom=0;fontSize=18;strokeColor=#000000;fontColor=#000000;" parent="1" vertex="1">
                    <mxGeometry x="749" y="620" width="180" height="60" as="geometry"/>
                </mxCell>
                <mxCell id="83" value="sendData(int *cardNum)" style="text;strokeColor=#000000;fillColor=none;align=left;verticalAlign=top;spacingLeft=4;spacingRight=4;overflow=hidden;rotatable=0;points=[[0,0.5],[1,0.5]];portConstraint=eastwest;fontSize=14;fontStyle=1;fontColor=#000000;" parent="82" vertex="1">
                    <mxGeometry y="30" width="180" height="30" as="geometry"/>
                </mxCell>
                <mxCell id="86" value="TcpServer" style="swimlane;fontStyle=1;childLayout=stackLayout;horizontal=1;startSize=30;fillColor=none;horizontalStack=0;resizeParent=1;resizeParentMax=0;resizeLast=0;collapsible=1;marginBottom=0;fontSize=18;strokeColor=#000000;fontColor=#000000;" parent="1" vertex="1">
                    <mxGeometry x="749" y="720" width="180" height="60" as="geometry"/>
                </mxCell>
                <mxCell id="87" value="sendData()" style="text;strokeColor=#000000;fillColor=none;align=left;verticalAlign=top;spacingLeft=4;spacingRight=4;overflow=hidden;rotatable=0;points=[[0,0.5],[1,0.5]];portConstraint=eastwest;fontSize=14;fontStyle=1;fontColor=#000000;" parent="86" vertex="1">
                    <mxGeometry y="30" width="180" height="30" as="geometry"/>
                </mxCell>
                <mxCell id="94" value="" style="endArrow=classic;html=1;entryX=0.5;entryY=0;entryDx=0;entryDy=0;strokeColor=#000000;fontColor=#000000;" edge="1" parent="1" source="40" target="15">
                    <mxGeometry width="50" height="50" relative="1" as="geometry">
                        <mxPoint x="113" y="790" as="sourcePoint"/>
                        <mxPoint x="150" y="765" as="targetPoint"/>
                    </mxGeometry>
                </mxCell>
                <mxCell id="95" value="" style="endArrow=classic;html=1;entryX=0;entryY=0.5;entryDx=0;entryDy=0;strokeColor=#000000;fontColor=#000000;" edge="1" parent="1" target="33">
                    <mxGeometry width="50" height="50" relative="1" as="geometry">
                        <mxPoint x="23" y="648" as="sourcePoint"/>
                        <mxPoint x="23" y="190" as="targetPoint"/>
                        <Array as="points">
                            <mxPoint x="23" y="339"/>
                        </Array>
                    </mxGeometry>
                </mxCell>
                <mxCell id="96" value="" style="endArrow=classic;html=1;entryX=0.25;entryY=0;entryDx=0;entryDy=0;strokeColor=#000000;fontColor=#000000;" edge="1" parent="1" target="77">
                    <mxGeometry width="50" height="50" relative="1" as="geometry">
                        <mxPoint x="140" y="600" as="sourcePoint"/>
                        <mxPoint x="360" y="620" as="targetPoint"/>
                        <Array as="points">
                            <mxPoint x="317" y="600"/>
                        </Array>
                    </mxGeometry>
                </mxCell>
                <mxCell id="99" value="" style="endArrow=classic;html=1;exitX=0.453;exitY=1.1;exitDx=0;exitDy=0;exitPerimeter=0;strokeColor=#000000;fontColor=#000000;" edge="1" parent="1" source="79">
                    <mxGeometry width="50" height="50" relative="1" as="geometry">
                        <mxPoint x="335" y="820" as="sourcePoint"/>
                        <mxPoint x="362" y="810" as="targetPoint"/>
                    </mxGeometry>
                </mxCell>
                <mxCell id="104" value="updateSearchEvent()" style="text;strokeColor=#000000;fillColor=none;align=left;verticalAlign=top;spacingLeft=4;spacingRight=4;overflow=hidden;rotatable=0;points=[[0,0.5],[1,0.5]];portConstraint=eastwest;fontSize=14;fontStyle=1;fontColor=#000000;" vertex="1" parent="1">
                    <mxGeometry x="390" y="505" width="180" height="28" as="geometry"/>
                </mxCell>
                <mxCell id="107" value="checkCardNumber(int *cardNum)" style="text;strokeColor=#000000;fillColor=none;align=left;verticalAlign=top;spacingLeft=4;spacingRight=4;overflow=hidden;rotatable=0;points=[[0,0.5],[1,0.5]];portConstraint=eastwest;fontSize=14;fontStyle=1;fontColor=#000000;" vertex="1" parent="1">
                    <mxGeometry x="650" y="530" width="240" height="30" as="geometry"/>
                </mxCell>
                <mxCell id="111" value="&lt;span style=&quot;font-size: 18px ; font-weight: 700 ; background-color: rgb(255 , 255 , 255)&quot;&gt;LCD&lt;/span&gt;" style="whiteSpace=wrap;html=1;labelBackgroundColor=#FFFFFF;fontSize=14;fontColor=#000000;strokeColor=#000000;fillColor=#FFFFFF;" vertex="1" parent="1">
                    <mxGeometry x="549" y="718" width="180" height="60" as="geometry"/>
                </mxCell>
                <mxCell id="112" style="edgeStyle=none;html=1;strokeColor=#000000;fontColor=#000000;exitX=0.469;exitY=1.033;exitDx=0;exitDy=0;exitPerimeter=0;" edge="1" parent="1" source="107">
                    <mxGeometry relative="1" as="geometry">
                        <mxPoint x="765" y="600" as="sourcePoint"/>
                        <mxPoint x="634" y="718" as="targetPoint"/>
                        <Array as="points">
                            <mxPoint x="763" y="600"/>
                            <mxPoint x="634" y="600"/>
                        </Array>
                    </mxGeometry>
                </mxCell>
            </root>
        </mxGraphModel>
    </diagram>
</mxfile>